<<<<<<< HEAD
<mxfile host="app.diagrams.net" modified="2021-09-19T22:22:10.838Z" agent="5.0 (Macintosh; Intel Mac OS X 10_15_7) AppleWebKit/605.1.15 (KHTML, like Gecko) Version/14.1.2 Safari/605.1.15" etag="KDh0dpuKIDHHWKKflG3S" version="15.2.9" type="github"><diagram id="_VHgrwPSO1s_CEOdGiff" name="Page-1">7Z1dc5s4FIZ/jS+3A8Zg+7J2092dTaedtPt1lVGMYqvFiBVyYu+vXwESjlGUkAUM+DCTaa2DLEDn5ZE5B4mRs9zuf2Yo2nyiPg5GY8vfj5wPo/HYtmee+C+xHDKLN3Ezw5oRX1Y6Gr6Sf7E0WtK6Iz6OTypySgNOolPjioYhXvETG2KMPp5Wu6fB6V4jtMaa4esKBbr1T+LzTWadudbR/gsm643as23JLVukKktDvEE+fXxicq5GzpJRyrNP2/0SB0nnqX7JvvfRsDU/MIZDXuYLP+6uP9/9/u399+D7H97DP9Yj+tX/yZ5kzTygYCfPeBdjFstD5gfVD+Loo+QjR3eJaRFzxLh0l2MJg3AARyTETBjstBwEKIpJWj2zbEjgX6MD3XHVkCot7ske+zeZt5K6wnHXorGkmDR+Lxr/Kg8m2YwCsg7F55U492SPC4ZjcSzXKOayhjwtzDjeGzvMzt0g9IvpFnN2EFXUF5QrpXTtuSw/HoVgz6Rt81QEjjQiKb513vbRP+KDdNFb3OVq7jJ6SpwoJyi4EVcFCtep0059knSsz2j0DbE15tIQUZJ06dWD6KS890kQLGlAE9eGNExa4jSSGwN8r757RzmnW+VB2R95o2lfuAvxJ3pnab1zR6443KUo28ey+EuqM76kYcyZEFTSBhZ+fcSJb8v59QWp696W3nVKOrc533qab7/89jbvpghER+++2XFWwXHF646Kjr8PUoptiO/jsJpH3Oc98sQFzhs9IBs7dsubW0OBkH+IOF7QXejHmlvz46zg6anmaVG/XU8romZ1F3GEViRcX2ff9ApScM8mhb354nRrlUap5s6hjVkvCF+UTx8I77VO+HlF39Z+1WOfqPYawPsMJt7VD/4nbg7RFo+W49F76+TfjiP/PHIAh3jVYwPia0d82Tu0xhCvXAkE8aY76ItHvKO5GW8RCWAR/ZX4CRyiu7ocIkHpIYomtrjFKNq4LKMnTUHa1YOeXRyAOxlFy6Te3Siaq0dILzyK5hp+El36GOzq8VLoUTSTFOANyHqEtYuE7+Qt1iuEbz2K5laNkPbrFiuTMkC868FSTnhysN0m/Hm8D47oCjsD0WsneutBM69qQLRfRPes591x6UT39Nioj+MVIxEnNITFdZMG4HFdD50NXK+H6+UjbY2BvWqgrWdgN/jj4sGux9xWDItd+reIA+O6QQLwuK5H5wau18R1t3WuVw2v9YzrHlCu65G2XeTD5LpBAvC4XvUZxoHrRq7P2ub6tGqQrWdcn8Pk+lSPt5H4Fq04eQAWXjcpABzW7SG+3hjX87msLU4tgxVht6GG2O1nYuxbtL+Nd3dbEsfgwuxGIYAD/FQXxsD3mvg+aZvv06pJlH7hPdMyPLpP9XQKw/Eu4PFtQMIfsNBuEgE8svdjTYhekn3aOtmrplF6RnagK0JM9YSK8CrDPkSwD0tByI4YloJoCuyO1TrY9TzKx7bnKTWLdqCrQShVFR+Ooey2+9OVziMBcGSf6cM9TR+CHWYMiy3qipGsnpRldZ7DqB3Ws36MxJ2cMDwzzGDpyoThmT4QX/iE4RnQkXiuj8TdH4GbnTBskgK4EXk+rMnUFOFbnzA8H1f0bb9utOZA12Sa60kwCnBmmcn98JDej1V++oj01mcMz6vmvHqGdKBL/Mz17FeG9FsS3lNgXB/W9pHPdFn6fdwA9nrA3v6UYdvS78QuOzEi9QyP7ral35gly2aCy4sYFQCP7WNdEvIRN6MkAGVGJsXUSOk3Es0b4/UzSyF3cTTuZG5Eyr27yRF7rN9EX3h2RAoa4HA81m+quz8SN/xaIpMYAI7Mw4IejXG+9RSJPYa1oodUM0TI64+ypJdI1zl/Jv8D5PqwoEdjXG89T5K/iRZONG0MdFEP29EDpw9U7BZeOM0kAXhwd/Rw2gD3muDegVyJo8feLpzujsEnl093PRCnUuHQ8G7SAEC8D1O/m8N766us2o4ecrt0vAOd/207evwNZircpAB4cJ+UeH4V+2ussh+iYwk/3OAAJT8Lro5bshxJlhi3xekvNnwbyOsXh/57xlLvXd0IfXyjn1B4SDbsCf9LVRKf/0708M6VpQ97hYOkcJCF7PCSYzI6XZpiumMr/NLZy5GNq8HIVLHEtOL8gbGTjLgysrTDHk4P+QXZfMmipUqQeYxHpeSnBalkp/olj7F+NDTkFBpyig1lXaE1VJve3BL3is3rzWpHb+qVsK/qrczTWoPgygmuRM5pAFyZgOZ5BefWJbhiQ40LrsQ07noFt0Wh/zn91ZU+nfbcBrETdsjJlxSeKDEpHqWYlhrQopre/roWS4RfBi2W02KJtNvFwq/EK6sbldG08E56t/iq+bIy8rzThrziEhT/W0aiyCjlT6szFG0+UR8nNf4D</diagram></mxfile>
=======
<mxfile host="app.diagrams.net" modified="2021-09-18T23:16:29.822Z" agent="5.0 (Macintosh; Intel Mac OS X 10_13_6) AppleWebKit/537.36 (KHTML, like Gecko) Chrome/93.0.4577.82 Safari/537.36" etag="Q5FaUVGWL83dQmh0SQw3" version="15.2.9" type="github">
  <diagram id="Tm6sLu57nqBq-N-8JstB" name="Page-1">
    <mxGraphModel dx="1186" dy="591" grid="1" gridSize="10" guides="1" tooltips="1" connect="1" arrows="1" fold="1" page="1" pageScale="1" pageWidth="850" pageHeight="1100" math="0" shadow="0">
      <root>
        <mxCell id="0" />
        <mxCell id="1" parent="0" />
        <mxCell id="88zVp1NvAnuXKJJvgf7H-19" value="Users (creators)Â " style="shape=table;startSize=30;container=1;collapsible=1;childLayout=tableLayout;fixedRows=1;rowLines=0;fontStyle=1;align=center;resizeLast=1;" vertex="1" parent="1">
          <mxGeometry x="70" y="40" width="180" height="160" as="geometry" />
        </mxCell>
        <mxCell id="88zVp1NvAnuXKJJvgf7H-20" value="" style="shape=partialRectangle;collapsible=0;dropTarget=0;pointerEvents=0;fillColor=none;top=0;left=0;bottom=1;right=0;points=[[0,0.5],[1,0.5]];portConstraint=eastwest;" vertex="1" parent="88zVp1NvAnuXKJJvgf7H-19">
          <mxGeometry y="30" width="180" height="30" as="geometry" />
        </mxCell>
        <mxCell id="88zVp1NvAnuXKJJvgf7H-21" value="PK" style="shape=partialRectangle;connectable=0;fillColor=none;top=0;left=0;bottom=0;right=0;fontStyle=1;overflow=hidden;" vertex="1" parent="88zVp1NvAnuXKJJvgf7H-20">
          <mxGeometry width="30" height="30" as="geometry">
            <mxRectangle width="30" height="30" as="alternateBounds" />
          </mxGeometry>
        </mxCell>
        <mxCell id="88zVp1NvAnuXKJJvgf7H-22" value="id" style="shape=partialRectangle;connectable=0;fillColor=none;top=0;left=0;bottom=0;right=0;align=left;spacingLeft=6;fontStyle=5;overflow=hidden;" vertex="1" parent="88zVp1NvAnuXKJJvgf7H-20">
          <mxGeometry x="30" width="150" height="30" as="geometry">
            <mxRectangle width="150" height="30" as="alternateBounds" />
          </mxGeometry>
        </mxCell>
        <mxCell id="88zVp1NvAnuXKJJvgf7H-23" value="" style="shape=partialRectangle;collapsible=0;dropTarget=0;pointerEvents=0;fillColor=none;top=0;left=0;bottom=0;right=0;points=[[0,0.5],[1,0.5]];portConstraint=eastwest;" vertex="1" parent="88zVp1NvAnuXKJJvgf7H-19">
          <mxGeometry y="60" width="180" height="30" as="geometry" />
        </mxCell>
        <mxCell id="88zVp1NvAnuXKJJvgf7H-24" value="" style="shape=partialRectangle;connectable=0;fillColor=none;top=0;left=0;bottom=0;right=0;editable=1;overflow=hidden;" vertex="1" parent="88zVp1NvAnuXKJJvgf7H-23">
          <mxGeometry width="30" height="30" as="geometry">
            <mxRectangle width="30" height="30" as="alternateBounds" />
          </mxGeometry>
        </mxCell>
        <mxCell id="88zVp1NvAnuXKJJvgf7H-25" value="email" style="shape=partialRectangle;connectable=0;fillColor=none;top=0;left=0;bottom=0;right=0;align=left;spacingLeft=6;overflow=hidden;" vertex="1" parent="88zVp1NvAnuXKJJvgf7H-23">
          <mxGeometry x="30" width="150" height="30" as="geometry">
            <mxRectangle width="150" height="30" as="alternateBounds" />
          </mxGeometry>
        </mxCell>
        <mxCell id="88zVp1NvAnuXKJJvgf7H-26" value="" style="shape=partialRectangle;collapsible=0;dropTarget=0;pointerEvents=0;fillColor=none;top=0;left=0;bottom=0;right=0;points=[[0,0.5],[1,0.5]];portConstraint=eastwest;" vertex="1" parent="88zVp1NvAnuXKJJvgf7H-19">
          <mxGeometry y="90" width="180" height="30" as="geometry" />
        </mxCell>
        <mxCell id="88zVp1NvAnuXKJJvgf7H-27" value="" style="shape=partialRectangle;connectable=0;fillColor=none;top=0;left=0;bottom=0;right=0;editable=1;overflow=hidden;" vertex="1" parent="88zVp1NvAnuXKJJvgf7H-26">
          <mxGeometry width="30" height="30" as="geometry">
            <mxRectangle width="30" height="30" as="alternateBounds" />
          </mxGeometry>
        </mxCell>
        <mxCell id="88zVp1NvAnuXKJJvgf7H-28" value="submission link" style="shape=partialRectangle;connectable=0;fillColor=none;top=0;left=0;bottom=0;right=0;align=left;spacingLeft=6;overflow=hidden;" vertex="1" parent="88zVp1NvAnuXKJJvgf7H-26">
          <mxGeometry x="30" width="150" height="30" as="geometry">
            <mxRectangle width="150" height="30" as="alternateBounds" />
          </mxGeometry>
        </mxCell>
        <mxCell id="88zVp1NvAnuXKJJvgf7H-29" value="" style="shape=partialRectangle;collapsible=0;dropTarget=0;pointerEvents=0;fillColor=none;top=0;left=0;bottom=0;right=0;points=[[0,0.5],[1,0.5]];portConstraint=eastwest;" vertex="1" parent="88zVp1NvAnuXKJJvgf7H-19">
          <mxGeometry y="120" width="180" height="30" as="geometry" />
        </mxCell>
        <mxCell id="88zVp1NvAnuXKJJvgf7H-30" value="" style="shape=partialRectangle;connectable=0;fillColor=none;top=0;left=0;bottom=0;right=0;editable=1;overflow=hidden;" vertex="1" parent="88zVp1NvAnuXKJJvgf7H-29">
          <mxGeometry width="30" height="30" as="geometry">
            <mxRectangle width="30" height="30" as="alternateBounds" />
          </mxGeometry>
        </mxCell>
        <mxCell id="88zVp1NvAnuXKJJvgf7H-31" value="admin link" style="shape=partialRectangle;connectable=0;fillColor=none;top=0;left=0;bottom=0;right=0;align=left;spacingLeft=6;overflow=hidden;" vertex="1" parent="88zVp1NvAnuXKJJvgf7H-29">
          <mxGeometry x="30" width="150" height="30" as="geometry">
            <mxRectangle width="150" height="30" as="alternateBounds" />
          </mxGeometry>
        </mxCell>
        <mxCell id="88zVp1NvAnuXKJJvgf7H-32" value="Voters" style="shape=table;startSize=30;container=1;collapsible=1;childLayout=tableLayout;fixedRows=1;rowLines=0;fontStyle=1;align=center;resizeLast=1;" vertex="1" parent="1">
          <mxGeometry x="540" y="40" width="180" height="160" as="geometry" />
        </mxCell>
        <mxCell id="88zVp1NvAnuXKJJvgf7H-33" value="" style="shape=partialRectangle;collapsible=0;dropTarget=0;pointerEvents=0;fillColor=none;top=0;left=0;bottom=1;right=0;points=[[0,0.5],[1,0.5]];portConstraint=eastwest;" vertex="1" parent="88zVp1NvAnuXKJJvgf7H-32">
          <mxGeometry y="30" width="180" height="30" as="geometry" />
        </mxCell>
        <mxCell id="88zVp1NvAnuXKJJvgf7H-34" value="PK" style="shape=partialRectangle;connectable=0;fillColor=none;top=0;left=0;bottom=0;right=0;fontStyle=1;overflow=hidden;" vertex="1" parent="88zVp1NvAnuXKJJvgf7H-33">
          <mxGeometry width="30" height="30" as="geometry">
            <mxRectangle width="30" height="30" as="alternateBounds" />
          </mxGeometry>
        </mxCell>
        <mxCell id="88zVp1NvAnuXKJJvgf7H-35" value="id" style="shape=partialRectangle;connectable=0;fillColor=none;top=0;left=0;bottom=0;right=0;align=left;spacingLeft=6;fontStyle=5;overflow=hidden;" vertex="1" parent="88zVp1NvAnuXKJJvgf7H-33">
          <mxGeometry x="30" width="150" height="30" as="geometry">
            <mxRectangle width="150" height="30" as="alternateBounds" />
          </mxGeometry>
        </mxCell>
        <mxCell id="88zVp1NvAnuXKJJvgf7H-36" value="" style="shape=partialRectangle;collapsible=0;dropTarget=0;pointerEvents=0;fillColor=none;top=0;left=0;bottom=0;right=0;points=[[0,0.5],[1,0.5]];portConstraint=eastwest;" vertex="1" parent="88zVp1NvAnuXKJJvgf7H-32">
          <mxGeometry y="60" width="180" height="30" as="geometry" />
        </mxCell>
        <mxCell id="88zVp1NvAnuXKJJvgf7H-37" value="" style="shape=partialRectangle;connectable=0;fillColor=none;top=0;left=0;bottom=0;right=0;editable=1;overflow=hidden;" vertex="1" parent="88zVp1NvAnuXKJJvgf7H-36">
          <mxGeometry width="30" height="30" as="geometry">
            <mxRectangle width="30" height="30" as="alternateBounds" />
          </mxGeometry>
        </mxCell>
        <mxCell id="88zVp1NvAnuXKJJvgf7H-38" value="answer_id" style="shape=partialRectangle;connectable=0;fillColor=none;top=0;left=0;bottom=0;right=0;align=left;spacingLeft=6;overflow=hidden;" vertex="1" parent="88zVp1NvAnuXKJJvgf7H-36">
          <mxGeometry x="30" width="150" height="30" as="geometry">
            <mxRectangle width="150" height="30" as="alternateBounds" />
          </mxGeometry>
        </mxCell>
        <mxCell id="88zVp1NvAnuXKJJvgf7H-39" value="" style="shape=partialRectangle;collapsible=0;dropTarget=0;pointerEvents=0;fillColor=none;top=0;left=0;bottom=0;right=0;points=[[0,0.5],[1,0.5]];portConstraint=eastwest;" vertex="1" parent="88zVp1NvAnuXKJJvgf7H-32">
          <mxGeometry y="90" width="180" height="30" as="geometry" />
        </mxCell>
        <mxCell id="88zVp1NvAnuXKJJvgf7H-40" value="" style="shape=partialRectangle;connectable=0;fillColor=none;top=0;left=0;bottom=0;right=0;editable=1;overflow=hidden;" vertex="1" parent="88zVp1NvAnuXKJJvgf7H-39">
          <mxGeometry width="30" height="30" as="geometry">
            <mxRectangle width="30" height="30" as="alternateBounds" />
          </mxGeometry>
        </mxCell>
        <mxCell id="88zVp1NvAnuXKJJvgf7H-41" value="cookie_id" style="shape=partialRectangle;connectable=0;fillColor=none;top=0;left=0;bottom=0;right=0;align=left;spacingLeft=6;overflow=hidden;" vertex="1" parent="88zVp1NvAnuXKJJvgf7H-39">
          <mxGeometry x="30" width="150" height="30" as="geometry">
            <mxRectangle width="150" height="30" as="alternateBounds" />
          </mxGeometry>
        </mxCell>
        <mxCell id="88zVp1NvAnuXKJJvgf7H-42" value="" style="shape=partialRectangle;collapsible=0;dropTarget=0;pointerEvents=0;fillColor=none;top=0;left=0;bottom=0;right=0;points=[[0,0.5],[1,0.5]];portConstraint=eastwest;" vertex="1" parent="88zVp1NvAnuXKJJvgf7H-32">
          <mxGeometry y="120" width="180" height="30" as="geometry" />
        </mxCell>
        <mxCell id="88zVp1NvAnuXKJJvgf7H-43" value="" style="shape=partialRectangle;connectable=0;fillColor=none;top=0;left=0;bottom=0;right=0;editable=1;overflow=hidden;" vertex="1" parent="88zVp1NvAnuXKJJvgf7H-42">
          <mxGeometry width="30" height="30" as="geometry">
            <mxRectangle width="30" height="30" as="alternateBounds" />
          </mxGeometry>
        </mxCell>
        <mxCell id="88zVp1NvAnuXKJJvgf7H-44" value="voted_at?" style="shape=partialRectangle;connectable=0;fillColor=none;top=0;left=0;bottom=0;right=0;align=left;spacingLeft=6;overflow=hidden;" vertex="1" parent="88zVp1NvAnuXKJJvgf7H-42">
          <mxGeometry x="30" width="150" height="30" as="geometry">
            <mxRectangle width="150" height="30" as="alternateBounds" />
          </mxGeometry>
        </mxCell>
        <mxCell id="88zVp1NvAnuXKJJvgf7H-45" value="Polls" style="shape=table;startSize=30;container=1;collapsible=1;childLayout=tableLayout;fixedRows=1;rowLines=0;fontStyle=1;align=center;resizeLast=1;" vertex="1" parent="1">
          <mxGeometry x="300" y="240" width="180" height="290" as="geometry" />
        </mxCell>
        <mxCell id="88zVp1NvAnuXKJJvgf7H-46" value="" style="shape=partialRectangle;collapsible=0;dropTarget=0;pointerEvents=0;fillColor=none;top=0;left=0;bottom=1;right=0;points=[[0,0.5],[1,0.5]];portConstraint=eastwest;" vertex="1" parent="88zVp1NvAnuXKJJvgf7H-45">
          <mxGeometry y="30" width="180" height="30" as="geometry" />
        </mxCell>
        <mxCell id="88zVp1NvAnuXKJJvgf7H-47" value="PK" style="shape=partialRectangle;connectable=0;fillColor=none;top=0;left=0;bottom=0;right=0;fontStyle=1;overflow=hidden;" vertex="1" parent="88zVp1NvAnuXKJJvgf7H-46">
          <mxGeometry width="30" height="30" as="geometry">
            <mxRectangle width="30" height="30" as="alternateBounds" />
          </mxGeometry>
        </mxCell>
        <mxCell id="88zVp1NvAnuXKJJvgf7H-48" value="id" style="shape=partialRectangle;connectable=0;fillColor=none;top=0;left=0;bottom=0;right=0;align=left;spacingLeft=6;fontStyle=5;overflow=hidden;" vertex="1" parent="88zVp1NvAnuXKJJvgf7H-46">
          <mxGeometry x="30" width="150" height="30" as="geometry">
            <mxRectangle width="150" height="30" as="alternateBounds" />
          </mxGeometry>
        </mxCell>
        <mxCell id="88zVp1NvAnuXKJJvgf7H-49" value="" style="shape=partialRectangle;collapsible=0;dropTarget=0;pointerEvents=0;fillColor=none;top=0;left=0;bottom=0;right=0;points=[[0,0.5],[1,0.5]];portConstraint=eastwest;" vertex="1" parent="88zVp1NvAnuXKJJvgf7H-45">
          <mxGeometry y="60" width="180" height="30" as="geometry" />
        </mxCell>
        <mxCell id="88zVp1NvAnuXKJJvgf7H-50" value="" style="shape=partialRectangle;connectable=0;fillColor=none;top=0;left=0;bottom=0;right=0;editable=1;overflow=hidden;" vertex="1" parent="88zVp1NvAnuXKJJvgf7H-49">
          <mxGeometry width="30" height="30" as="geometry">
            <mxRectangle width="30" height="30" as="alternateBounds" />
          </mxGeometry>
        </mxCell>
        <mxCell id="88zVp1NvAnuXKJJvgf7H-51" value="title" style="shape=partialRectangle;connectable=0;fillColor=none;top=0;left=0;bottom=0;right=0;align=left;spacingLeft=6;overflow=hidden;" vertex="1" parent="88zVp1NvAnuXKJJvgf7H-49">
          <mxGeometry x="30" width="150" height="30" as="geometry">
            <mxRectangle width="150" height="30" as="alternateBounds" />
          </mxGeometry>
        </mxCell>
        <mxCell id="88zVp1NvAnuXKJJvgf7H-52" value="" style="shape=partialRectangle;collapsible=0;dropTarget=0;pointerEvents=0;fillColor=none;top=0;left=0;bottom=0;right=0;points=[[0,0.5],[1,0.5]];portConstraint=eastwest;" vertex="1" parent="88zVp1NvAnuXKJJvgf7H-45">
          <mxGeometry y="90" width="180" height="30" as="geometry" />
        </mxCell>
        <mxCell id="88zVp1NvAnuXKJJvgf7H-53" value="" style="shape=partialRectangle;connectable=0;fillColor=none;top=0;left=0;bottom=0;right=0;editable=1;overflow=hidden;" vertex="1" parent="88zVp1NvAnuXKJJvgf7H-52">
          <mxGeometry width="30" height="30" as="geometry">
            <mxRectangle width="30" height="30" as="alternateBounds" />
          </mxGeometry>
        </mxCell>
        <mxCell id="88zVp1NvAnuXKJJvgf7H-54" value="description" style="shape=partialRectangle;connectable=0;fillColor=none;top=0;left=0;bottom=0;right=0;align=left;spacingLeft=6;overflow=hidden;" vertex="1" parent="88zVp1NvAnuXKJJvgf7H-52">
          <mxGeometry x="30" width="150" height="30" as="geometry">
            <mxRectangle width="150" height="30" as="alternateBounds" />
          </mxGeometry>
        </mxCell>
        <mxCell id="88zVp1NvAnuXKJJvgf7H-55" value="" style="shape=partialRectangle;collapsible=0;dropTarget=0;pointerEvents=0;fillColor=none;top=0;left=0;bottom=0;right=0;points=[[0,0.5],[1,0.5]];portConstraint=eastwest;" vertex="1" parent="88zVp1NvAnuXKJJvgf7H-45">
          <mxGeometry y="120" width="180" height="30" as="geometry" />
        </mxCell>
        <mxCell id="88zVp1NvAnuXKJJvgf7H-56" value="FK" style="shape=partialRectangle;connectable=0;fillColor=none;top=0;left=0;bottom=0;right=0;editable=1;overflow=hidden;" vertex="1" parent="88zVp1NvAnuXKJJvgf7H-55">
          <mxGeometry width="30" height="30" as="geometry">
            <mxRectangle width="30" height="30" as="alternateBounds" />
          </mxGeometry>
        </mxCell>
        <mxCell id="88zVp1NvAnuXKJJvgf7H-57" value="choice_id" style="shape=partialRectangle;connectable=0;fillColor=none;top=0;left=0;bottom=0;right=0;align=left;spacingLeft=6;overflow=hidden;" vertex="1" parent="88zVp1NvAnuXKJJvgf7H-55">
          <mxGeometry x="30" width="150" height="30" as="geometry">
            <mxRectangle width="150" height="30" as="alternateBounds" />
          </mxGeometry>
        </mxCell>
        <mxCell id="88zVp1NvAnuXKJJvgf7H-58" value="host_id" style="shape=partialRectangle;connectable=0;fillColor=none;top=0;left=0;bottom=0;right=0;align=left;spacingLeft=6;overflow=hidden;" vertex="1" parent="1">
          <mxGeometry x="330" y="390" width="150" height="30" as="geometry">
            <mxRectangle width="150" height="30" as="alternateBounds" />
          </mxGeometry>
        </mxCell>
        <mxCell id="88zVp1NvAnuXKJJvgf7H-60" value="created_at" style="shape=partialRectangle;connectable=0;fillColor=none;top=0;left=0;bottom=0;right=0;align=left;spacingLeft=6;overflow=hidden;" vertex="1" parent="1">
          <mxGeometry x="330" y="430" width="150" height="30" as="geometry">
            <mxRectangle width="150" height="30" as="alternateBounds" />
          </mxGeometry>
        </mxCell>
        <mxCell id="88zVp1NvAnuXKJJvgf7H-61" value="updated_at" style="shape=partialRectangle;connectable=0;fillColor=none;top=0;left=0;bottom=0;right=0;align=left;spacingLeft=6;overflow=hidden;" vertex="1" parent="1">
          <mxGeometry x="330" y="470" width="150" height="30" as="geometry">
            <mxRectangle width="150" height="30" as="alternateBounds" />
          </mxGeometry>
        </mxCell>
        <mxCell id="88zVp1NvAnuXKJJvgf7H-62" value="Poll_answers" style="shape=table;startSize=30;container=1;collapsible=1;childLayout=tableLayout;fixedRows=1;rowLines=0;fontStyle=1;align=center;resizeLast=1;" vertex="1" parent="1">
          <mxGeometry x="570" y="530" width="180" height="280" as="geometry" />
        </mxCell>
        <mxCell id="88zVp1NvAnuXKJJvgf7H-63" value="" style="shape=partialRectangle;collapsible=0;dropTarget=0;pointerEvents=0;fillColor=none;top=0;left=0;bottom=1;right=0;points=[[0,0.5],[1,0.5]];portConstraint=eastwest;" vertex="1" parent="88zVp1NvAnuXKJJvgf7H-62">
          <mxGeometry y="30" width="180" height="30" as="geometry" />
        </mxCell>
        <mxCell id="88zVp1NvAnuXKJJvgf7H-64" value="PK" style="shape=partialRectangle;connectable=0;fillColor=none;top=0;left=0;bottom=0;right=0;fontStyle=1;overflow=hidden;" vertex="1" parent="88zVp1NvAnuXKJJvgf7H-63">
          <mxGeometry width="30" height="30" as="geometry">
            <mxRectangle width="30" height="30" as="alternateBounds" />
          </mxGeometry>
        </mxCell>
        <mxCell id="88zVp1NvAnuXKJJvgf7H-65" value="id" style="shape=partialRectangle;connectable=0;fillColor=none;top=0;left=0;bottom=0;right=0;align=left;spacingLeft=6;fontStyle=5;overflow=hidden;" vertex="1" parent="88zVp1NvAnuXKJJvgf7H-63">
          <mxGeometry x="30" width="150" height="30" as="geometry">
            <mxRectangle width="150" height="30" as="alternateBounds" />
          </mxGeometry>
        </mxCell>
        <mxCell id="88zVp1NvAnuXKJJvgf7H-66" value="" style="shape=partialRectangle;collapsible=0;dropTarget=0;pointerEvents=0;fillColor=none;top=0;left=0;bottom=0;right=0;points=[[0,0.5],[1,0.5]];portConstraint=eastwest;" vertex="1" parent="88zVp1NvAnuXKJJvgf7H-62">
          <mxGeometry y="60" width="180" height="30" as="geometry" />
        </mxCell>
        <mxCell id="88zVp1NvAnuXKJJvgf7H-67" value="FK" style="shape=partialRectangle;connectable=0;fillColor=none;top=0;left=0;bottom=0;right=0;editable=1;overflow=hidden;" vertex="1" parent="88zVp1NvAnuXKJJvgf7H-66">
          <mxGeometry width="30" height="30" as="geometry">
            <mxRectangle width="30" height="30" as="alternateBounds" />
          </mxGeometry>
        </mxCell>
        <mxCell id="88zVp1NvAnuXKJJvgf7H-68" value="voter_id" style="shape=partialRectangle;connectable=0;fillColor=none;top=0;left=0;bottom=0;right=0;align=left;spacingLeft=6;overflow=hidden;" vertex="1" parent="88zVp1NvAnuXKJJvgf7H-66">
          <mxGeometry x="30" width="150" height="30" as="geometry">
            <mxRectangle width="150" height="30" as="alternateBounds" />
          </mxGeometry>
        </mxCell>
        <mxCell id="88zVp1NvAnuXKJJvgf7H-69" value="" style="shape=partialRectangle;collapsible=0;dropTarget=0;pointerEvents=0;fillColor=none;top=0;left=0;bottom=0;right=0;points=[[0,0.5],[1,0.5]];portConstraint=eastwest;" vertex="1" parent="88zVp1NvAnuXKJJvgf7H-62">
          <mxGeometry y="90" width="180" height="30" as="geometry" />
        </mxCell>
        <mxCell id="88zVp1NvAnuXKJJvgf7H-70" value="" style="shape=partialRectangle;connectable=0;fillColor=none;top=0;left=0;bottom=0;right=0;editable=1;overflow=hidden;" vertex="1" parent="88zVp1NvAnuXKJJvgf7H-69">
          <mxGeometry width="30" height="30" as="geometry">
            <mxRectangle width="30" height="30" as="alternateBounds" />
          </mxGeometry>
        </mxCell>
        <mxCell id="88zVp1NvAnuXKJJvgf7H-71" value="choice_id" style="shape=partialRectangle;connectable=0;fillColor=none;top=0;left=0;bottom=0;right=0;align=left;spacingLeft=6;overflow=hidden;" vertex="1" parent="88zVp1NvAnuXKJJvgf7H-69">
          <mxGeometry x="30" width="150" height="30" as="geometry">
            <mxRectangle width="150" height="30" as="alternateBounds" />
          </mxGeometry>
        </mxCell>
        <mxCell id="88zVp1NvAnuXKJJvgf7H-72" value="" style="shape=partialRectangle;collapsible=0;dropTarget=0;pointerEvents=0;fillColor=none;top=0;left=0;bottom=0;right=0;points=[[0,0.5],[1,0.5]];portConstraint=eastwest;" vertex="1" parent="88zVp1NvAnuXKJJvgf7H-62">
          <mxGeometry y="120" width="180" height="30" as="geometry" />
        </mxCell>
        <mxCell id="88zVp1NvAnuXKJJvgf7H-73" value="" style="shape=partialRectangle;connectable=0;fillColor=none;top=0;left=0;bottom=0;right=0;editable=1;overflow=hidden;" vertex="1" parent="88zVp1NvAnuXKJJvgf7H-72">
          <mxGeometry width="30" height="30" as="geometry">
            <mxRectangle width="30" height="30" as="alternateBounds" />
          </mxGeometry>
        </mxCell>
        <mxCell id="88zVp1NvAnuXKJJvgf7H-74" value="points" style="shape=partialRectangle;connectable=0;fillColor=none;top=0;left=0;bottom=0;right=0;align=left;spacingLeft=6;overflow=hidden;" vertex="1" parent="88zVp1NvAnuXKJJvgf7H-72">
          <mxGeometry x="30" width="150" height="30" as="geometry">
            <mxRectangle width="150" height="30" as="alternateBounds" />
          </mxGeometry>
        </mxCell>
        <mxCell id="88zVp1NvAnuXKJJvgf7H-75" value="created_at" style="shape=partialRectangle;connectable=0;fillColor=none;top=0;left=0;bottom=0;right=0;align=left;spacingLeft=6;overflow=hidden;" vertex="1" parent="1">
          <mxGeometry x="600" y="690" width="150" height="30" as="geometry">
            <mxRectangle width="150" height="30" as="alternateBounds" />
          </mxGeometry>
        </mxCell>
        <mxCell id="88zVp1NvAnuXKJJvgf7H-78" value="poll_id" style="shape=partialRectangle;connectable=0;fillColor=none;top=0;left=0;bottom=0;right=0;align=left;spacingLeft=6;overflow=hidden;" vertex="1" parent="1">
          <mxGeometry x="600" y="740" width="150" height="30" as="geometry">
            <mxRectangle width="150" height="30" as="alternateBounds" />
          </mxGeometry>
        </mxCell>
        <mxCell id="88zVp1NvAnuXKJJvgf7H-79" value="FK" style="text;html=1;align=center;verticalAlign=middle;resizable=0;points=[];autosize=1;strokeColor=none;fillColor=none;" vertex="1" parent="1">
          <mxGeometry x="570" y="745" width="30" height="20" as="geometry" />
        </mxCell>
        <mxCell id="88zVp1NvAnuXKJJvgf7H-80" value="" style="edgeStyle=entityRelationEdgeStyle;fontSize=12;html=1;endArrow=ERmandOne;startArrow=ERmandOne;entryX=1;entryY=0.5;entryDx=0;entryDy=0;" edge="1" parent="1" target="88zVp1NvAnuXKJJvgf7H-36">
          <mxGeometry width="100" height="100" relative="1" as="geometry">
            <mxPoint x="760" y="640" as="sourcePoint" />
            <mxPoint x="820" y="150" as="targetPoint" />
          </mxGeometry>
        </mxCell>
        <mxCell id="88zVp1NvAnuXKJJvgf7H-82" value="" style="edgeStyle=entityRelationEdgeStyle;fontSize=12;html=1;endArrow=ERmandOne;startArrow=ERmandOne;" edge="1" parent="1" target="88zVp1NvAnuXKJJvgf7H-33">
          <mxGeometry width="100" height="100" relative="1" as="geometry">
            <mxPoint x="760" y="605" as="sourcePoint" />
            <mxPoint x="750" y="80" as="targetPoint" />
          </mxGeometry>
        </mxCell>
        <mxCell id="88zVp1NvAnuXKJJvgf7H-83" value="FK" style="text;html=1;align=center;verticalAlign=middle;resizable=0;points=[];autosize=1;strokeColor=none;fillColor=none;" vertex="1" parent="1">
          <mxGeometry x="300" y="395" width="30" height="20" as="geometry" />
        </mxCell>
        <mxCell id="88zVp1NvAnuXKJJvgf7H-84" value="" style="edgeStyle=entityRelationEdgeStyle;fontSize=12;html=1;endArrow=ERoneToMany;exitX=1;exitY=0.5;exitDx=0;exitDy=0;entryX=-0.033;entryY=0.45;entryDx=0;entryDy=0;entryPerimeter=0;" edge="1" parent="1" source="88zVp1NvAnuXKJJvgf7H-20" target="88zVp1NvAnuXKJJvgf7H-83">
          <mxGeometry width="100" height="100" relative="1" as="geometry">
            <mxPoint x="370" y="330" as="sourcePoint" />
            <mxPoint x="470" y="230" as="targetPoint" />
          </mxGeometry>
        </mxCell>
        <mxCell id="88zVp1NvAnuXKJJvgf7H-85" value="submitting the vote will set the cookie_id link" style="text;html=1;align=center;verticalAlign=middle;resizable=0;points=[];autosize=1;strokeColor=none;fillColor=none;" vertex="1" parent="1">
          <mxGeometry x="280" y="45" width="250" height="20" as="geometry" />
        </mxCell>
        <mxCell id="88zVp1NvAnuXKJJvgf7H-92" value="" style="edgeStyle=entityRelationEdgeStyle;fontSize=12;html=1;endArrow=ERmandOne;startArrow=ERmandOne;entryX=-0.033;entryY=0.5;entryDx=0;entryDy=0;entryPerimeter=0;exitX=1;exitY=0.5;exitDx=0;exitDy=0;" edge="1" parent="1" source="88zVp1NvAnuXKJJvgf7H-46" target="88zVp1NvAnuXKJJvgf7H-79">
          <mxGeometry width="100" height="100" relative="1" as="geometry">
            <mxPoint x="370" y="570" as="sourcePoint" />
            <mxPoint x="470" y="470" as="targetPoint" />
          </mxGeometry>
        </mxCell>
        <mxCell id="88zVp1NvAnuXKJJvgf7H-94" value="statusÂ " style="shape=partialRectangle;connectable=0;fillColor=none;top=0;left=0;bottom=0;right=0;align=left;spacingLeft=6;overflow=hidden;" vertex="1" parent="1">
          <mxGeometry x="330" y="500" width="150" height="30" as="geometry">
            <mxRectangle width="150" height="30" as="alternateBounds" />
          </mxGeometry>
        </mxCell>
        <mxCell id="88zVp1NvAnuXKJJvgf7H-95" value="Choices" style="shape=table;startSize=30;container=1;collapsible=1;childLayout=tableLayout;fixedRows=1;rowLines=0;fontStyle=1;align=center;resizeLast=1;" vertex="1" parent="1">
          <mxGeometry x="40" y="480" width="180" height="200" as="geometry" />
        </mxCell>
        <mxCell id="88zVp1NvAnuXKJJvgf7H-96" value="" style="shape=partialRectangle;collapsible=0;dropTarget=0;pointerEvents=0;fillColor=none;top=0;left=0;bottom=1;right=0;points=[[0,0.5],[1,0.5]];portConstraint=eastwest;" vertex="1" parent="88zVp1NvAnuXKJJvgf7H-95">
          <mxGeometry y="30" width="180" height="30" as="geometry" />
        </mxCell>
        <mxCell id="88zVp1NvAnuXKJJvgf7H-97" value="PK" style="shape=partialRectangle;connectable=0;fillColor=none;top=0;left=0;bottom=0;right=0;fontStyle=1;overflow=hidden;" vertex="1" parent="88zVp1NvAnuXKJJvgf7H-96">
          <mxGeometry width="30" height="30" as="geometry">
            <mxRectangle width="30" height="30" as="alternateBounds" />
          </mxGeometry>
        </mxCell>
        <mxCell id="88zVp1NvAnuXKJJvgf7H-98" value="id" style="shape=partialRectangle;connectable=0;fillColor=none;top=0;left=0;bottom=0;right=0;align=left;spacingLeft=6;fontStyle=5;overflow=hidden;" vertex="1" parent="88zVp1NvAnuXKJJvgf7H-96">
          <mxGeometry x="30" width="150" height="30" as="geometry">
            <mxRectangle width="150" height="30" as="alternateBounds" />
          </mxGeometry>
        </mxCell>
        <mxCell id="88zVp1NvAnuXKJJvgf7H-99" value="" style="shape=partialRectangle;collapsible=0;dropTarget=0;pointerEvents=0;fillColor=none;top=0;left=0;bottom=0;right=0;points=[[0,0.5],[1,0.5]];portConstraint=eastwest;" vertex="1" parent="88zVp1NvAnuXKJJvgf7H-95">
          <mxGeometry y="60" width="180" height="30" as="geometry" />
        </mxCell>
        <mxCell id="88zVp1NvAnuXKJJvgf7H-100" value="" style="shape=partialRectangle;connectable=0;fillColor=none;top=0;left=0;bottom=0;right=0;editable=1;overflow=hidden;" vertex="1" parent="88zVp1NvAnuXKJJvgf7H-99">
          <mxGeometry width="30" height="30" as="geometry">
            <mxRectangle width="30" height="30" as="alternateBounds" />
          </mxGeometry>
        </mxCell>
        <mxCell id="88zVp1NvAnuXKJJvgf7H-101" value="Choice_1" style="shape=partialRectangle;connectable=0;fillColor=none;top=0;left=0;bottom=0;right=0;align=left;spacingLeft=6;overflow=hidden;" vertex="1" parent="88zVp1NvAnuXKJJvgf7H-99">
          <mxGeometry x="30" width="150" height="30" as="geometry">
            <mxRectangle width="150" height="30" as="alternateBounds" />
          </mxGeometry>
        </mxCell>
        <mxCell id="88zVp1NvAnuXKJJvgf7H-102" value="" style="shape=partialRectangle;collapsible=0;dropTarget=0;pointerEvents=0;fillColor=none;top=0;left=0;bottom=0;right=0;points=[[0,0.5],[1,0.5]];portConstraint=eastwest;" vertex="1" parent="88zVp1NvAnuXKJJvgf7H-95">
          <mxGeometry y="90" width="180" height="30" as="geometry" />
        </mxCell>
        <mxCell id="88zVp1NvAnuXKJJvgf7H-103" value="" style="shape=partialRectangle;connectable=0;fillColor=none;top=0;left=0;bottom=0;right=0;editable=1;overflow=hidden;" vertex="1" parent="88zVp1NvAnuXKJJvgf7H-102">
          <mxGeometry width="30" height="30" as="geometry">
            <mxRectangle width="30" height="30" as="alternateBounds" />
          </mxGeometry>
        </mxCell>
        <mxCell id="88zVp1NvAnuXKJJvgf7H-104" value="Choice_2" style="shape=partialRectangle;connectable=0;fillColor=none;top=0;left=0;bottom=0;right=0;align=left;spacingLeft=6;overflow=hidden;" vertex="1" parent="88zVp1NvAnuXKJJvgf7H-102">
          <mxGeometry x="30" width="150" height="30" as="geometry">
            <mxRectangle width="150" height="30" as="alternateBounds" />
          </mxGeometry>
        </mxCell>
        <mxCell id="88zVp1NvAnuXKJJvgf7H-105" value="" style="shape=partialRectangle;collapsible=0;dropTarget=0;pointerEvents=0;fillColor=none;top=0;left=0;bottom=0;right=0;points=[[0,0.5],[1,0.5]];portConstraint=eastwest;" vertex="1" parent="88zVp1NvAnuXKJJvgf7H-95">
          <mxGeometry y="120" width="180" height="30" as="geometry" />
        </mxCell>
        <mxCell id="88zVp1NvAnuXKJJvgf7H-106" value="" style="shape=partialRectangle;connectable=0;fillColor=none;top=0;left=0;bottom=0;right=0;editable=1;overflow=hidden;" vertex="1" parent="88zVp1NvAnuXKJJvgf7H-105">
          <mxGeometry width="30" height="30" as="geometry">
            <mxRectangle width="30" height="30" as="alternateBounds" />
          </mxGeometry>
        </mxCell>
        <mxCell id="88zVp1NvAnuXKJJvgf7H-107" value="Choice_3" style="shape=partialRectangle;connectable=0;fillColor=none;top=0;left=0;bottom=0;right=0;align=left;spacingLeft=6;overflow=hidden;" vertex="1" parent="88zVp1NvAnuXKJJvgf7H-105">
          <mxGeometry x="30" width="150" height="30" as="geometry">
            <mxRectangle width="150" height="30" as="alternateBounds" />
          </mxGeometry>
        </mxCell>
        <mxCell id="88zVp1NvAnuXKJJvgf7H-108" value="" style="edgeStyle=entityRelationEdgeStyle;fontSize=12;html=1;endArrow=ERmandOne;startArrow=ERmandOne;entryX=0;entryY=0.5;entryDx=0;entryDy=0;" edge="1" parent="1" target="88zVp1NvAnuXKJJvgf7H-55">
          <mxGeometry width="100" height="100" relative="1" as="geometry">
            <mxPoint x="220" y="520" as="sourcePoint" />
            <mxPoint x="320" y="420" as="targetPoint" />
          </mxGeometry>
        </mxCell>
        <mxCell id="88zVp1NvAnuXKJJvgf7H-109" value="poll_id" style="shape=partialRectangle;connectable=0;fillColor=none;top=0;left=0;bottom=0;right=0;align=left;spacingLeft=6;overflow=hidden;" vertex="1" parent="1">
          <mxGeometry x="70" y="640" width="150" height="30" as="geometry">
            <mxRectangle width="150" height="30" as="alternateBounds" />
          </mxGeometry>
        </mxCell>
        <mxCell id="88zVp1NvAnuXKJJvgf7H-110" value="" style="fontSize=12;html=1;endArrow=ERmandOne;startArrow=ERmandOne;edgeStyle=orthogonalEdgeStyle;exitX=0;exitY=0.5;exitDx=0;exitDy=0;" edge="1" parent="1" source="88zVp1NvAnuXKJJvgf7H-46">
          <mxGeometry width="100" height="100" relative="1" as="geometry">
            <mxPoint x="130" y="240" as="sourcePoint" />
            <mxPoint x="40" y="655" as="targetPoint" />
          </mxGeometry>
        </mxCell>
        <mxCell id="88zVp1NvAnuXKJJvgf7H-112" value="FK" style="text;html=1;align=center;verticalAlign=middle;resizable=0;points=[];autosize=1;strokeColor=none;fillColor=none;" vertex="1" parent="1">
          <mxGeometry x="40" y="645" width="30" height="20" as="geometry" />
        </mxCell>
        <mxCell id="88zVp1NvAnuXKJJvgf7H-113" value="List of features" style="shape=table;startSize=30;container=1;collapsible=1;childLayout=tableLayout;fixedRows=1;rowLines=0;fontStyle=1;align=center;resizeLast=1;" vertex="1" parent="1">
          <mxGeometry x="70" y="850" width="680" height="160" as="geometry" />
        </mxCell>
        <mxCell id="88zVp1NvAnuXKJJvgf7H-114" value="" style="shape=partialRectangle;collapsible=0;dropTarget=0;pointerEvents=0;fillColor=none;top=0;left=0;bottom=1;right=0;points=[[0,0.5],[1,0.5]];portConstraint=eastwest;" vertex="1" parent="88zVp1NvAnuXKJJvgf7H-113">
          <mxGeometry y="30" width="680" height="30" as="geometry" />
        </mxCell>
        <mxCell id="88zVp1NvAnuXKJJvgf7H-115" value="" style="shape=partialRectangle;connectable=0;fillColor=none;top=0;left=0;bottom=0;right=0;fontStyle=1;overflow=hidden;" vertex="1" parent="88zVp1NvAnuXKJJvgf7H-114">
          <mxGeometry width="30" height="30" as="geometry">
            <mxRectangle width="30" height="30" as="alternateBounds" />
          </mxGeometry>
        </mxCell>
        <mxCell id="88zVp1NvAnuXKJJvgf7H-116" value="" style="shape=partialRectangle;connectable=0;fillColor=none;top=0;left=0;bottom=0;right=0;align=left;spacingLeft=6;fontStyle=5;overflow=hidden;" vertex="1" parent="88zVp1NvAnuXKJJvgf7H-114">
          <mxGeometry x="30" width="650" height="30" as="geometry">
            <mxRectangle width="650" height="30" as="alternateBounds" />
          </mxGeometry>
        </mxCell>
        <mxCell id="88zVp1NvAnuXKJJvgf7H-117" value="" style="shape=partialRectangle;collapsible=0;dropTarget=0;pointerEvents=0;fillColor=none;top=0;left=0;bottom=0;right=0;points=[[0,0.5],[1,0.5]];portConstraint=eastwest;" vertex="1" parent="88zVp1NvAnuXKJJvgf7H-113">
          <mxGeometry y="60" width="680" height="30" as="geometry" />
        </mxCell>
        <mxCell id="88zVp1NvAnuXKJJvgf7H-118" value="" style="shape=partialRectangle;connectable=0;fillColor=none;top=0;left=0;bottom=0;right=0;editable=1;overflow=hidden;" vertex="1" parent="88zVp1NvAnuXKJJvgf7H-117">
          <mxGeometry width="30" height="30" as="geometry">
            <mxRectangle width="30" height="30" as="alternateBounds" />
          </mxGeometry>
        </mxCell>
        <mxCell id="88zVp1NvAnuXKJJvgf7H-119" value="Add to the bottom of the resultsÂ  page how many how manyÂ &#xa;people voted and updated timestamp" style="shape=partialRectangle;connectable=0;fillColor=none;top=0;left=0;bottom=0;right=0;align=left;spacingLeft=6;overflow=hidden;" vertex="1" parent="88zVp1NvAnuXKJJvgf7H-117">
          <mxGeometry x="30" width="650" height="30" as="geometry">
            <mxRectangle width="650" height="30" as="alternateBounds" />
          </mxGeometry>
        </mxCell>
        <mxCell id="88zVp1NvAnuXKJJvgf7H-120" value="" style="shape=partialRectangle;collapsible=0;dropTarget=0;pointerEvents=0;fillColor=none;top=0;left=0;bottom=0;right=0;points=[[0,0.5],[1,0.5]];portConstraint=eastwest;" vertex="1" parent="88zVp1NvAnuXKJJvgf7H-113">
          <mxGeometry y="90" width="680" height="30" as="geometry" />
        </mxCell>
        <mxCell id="88zVp1NvAnuXKJJvgf7H-121" value="" style="shape=partialRectangle;connectable=0;fillColor=none;top=0;left=0;bottom=0;right=0;editable=1;overflow=hidden;" vertex="1" parent="88zVp1NvAnuXKJJvgf7H-120">
          <mxGeometry width="30" height="30" as="geometry">
            <mxRectangle width="30" height="30" as="alternateBounds" />
          </mxGeometry>
        </mxCell>
        <mxCell id="88zVp1NvAnuXKJJvgf7H-122" value="Letting people vote anonymouslyÂ &#xa;Show the voters name in the results page&#xa;Adding a way for voters to see their results" style="shape=partialRectangle;connectable=0;fillColor=none;top=0;left=0;bottom=0;right=0;align=left;spacingLeft=6;overflow=hidden;" vertex="1" parent="88zVp1NvAnuXKJJvgf7H-120">
          <mxGeometry x="30" width="650" height="30" as="geometry">
            <mxRectangle width="650" height="30" as="alternateBounds" />
          </mxGeometry>
        </mxCell>
        <mxCell id="88zVp1NvAnuXKJJvgf7H-123" value="" style="shape=partialRectangle;collapsible=0;dropTarget=0;pointerEvents=0;fillColor=none;top=0;left=0;bottom=0;right=0;points=[[0,0.5],[1,0.5]];portConstraint=eastwest;" vertex="1" parent="88zVp1NvAnuXKJJvgf7H-113">
          <mxGeometry y="120" width="680" height="30" as="geometry" />
        </mxCell>
        <mxCell id="88zVp1NvAnuXKJJvgf7H-124" value="" style="shape=partialRectangle;connectable=0;fillColor=none;top=0;left=0;bottom=0;right=0;editable=1;overflow=hidden;" vertex="1" parent="88zVp1NvAnuXKJJvgf7H-123">
          <mxGeometry width="30" height="30" as="geometry">
            <mxRectangle width="30" height="30" as="alternateBounds" />
          </mxGeometry>
        </mxCell>
        <mxCell id="88zVp1NvAnuXKJJvgf7H-125" value="" style="shape=partialRectangle;connectable=0;fillColor=none;top=0;left=0;bottom=0;right=0;align=left;spacingLeft=6;overflow=hidden;" vertex="1" parent="88zVp1NvAnuXKJJvgf7H-123">
          <mxGeometry x="30" width="650" height="30" as="geometry">
            <mxRectangle width="650" height="30" as="alternateBounds" />
          </mxGeometry>
        </mxCell>
        <mxCell id="88zVp1NvAnuXKJJvgf7H-126" value="" style="edgeStyle=entityRelationEdgeStyle;fontSize=12;html=1;endArrow=ERmandOne;startArrow=ERmandOne;entryX=0;entryY=0.5;entryDx=0;entryDy=0;" edge="1" parent="1" target="88zVp1NvAnuXKJJvgf7H-69">
          <mxGeometry width="100" height="100" relative="1" as="geometry">
            <mxPoint x="230" y="530" as="sourcePoint" />
            <mxPoint x="480" y="440" as="targetPoint" />
          </mxGeometry>
        </mxCell>
      </root>
    </mxGraphModel>
  </diagram>
</mxfile>
>>>>>>> Schemas_Seeds
